<svg viewBox="0 0 1000 340" width="100%" xmlns="http://www.w3.org/2000/svg">
<rect x="0.5" y="0.5" width="999" height="339" rx="12" fill="#ffffff" stroke="#d0d7de" stroke-width="1"/>
<text x="22" y="30" font-family="ui-sans-serif,Segoe UI,sans-serif" font-size="15" font-weight="600" fill="#1f2328">AGY/USD</text>
<text x="22" y="48" font-family="ui-sans-serif,Segoe UI,sans-serif" font-size="11" fill="#656d76">1D · 60 bars · MA20</text>
<text x="926" y="30" text-anchor="end" font-family="ui-monospace,Consolas,monospace" font-size="17" font-weight="600" fill="#1f2328">115.6</text>
<text x="926" y="48" text-anchor="end" font-family="ui-monospace,Consolas,monospace" font-size="11" fill="#1a7f37">▼ -2.74%</text>
<line x1="22" y1="232.00" x2="926" y2="232.00" stroke="#e7ebef" stroke-width="0.5"/>
<text x="934" y="235.50" font-family="ui-monospace,Consolas,monospace" font-size="10" fill="#656d76">100.1</text>
<line x1="22" y1="193.50" x2="926" y2="193.50" stroke="#e7ebef" stroke-width="0.5"/>
<text x="934" y="197.00" font-family="ui-monospace,Consolas,monospace" font-size="10" fill="#656d76">106.0</text>
<line x1="22" y1="155.00" x2="926" y2="155.00" stroke="#e7ebef" stroke-width="0.5"/>
<text x="934" y="158.50" font-family="ui-monospace,Consolas,monospace" font-size="10" fill="#656d76">111.8</text>
<line x1="22" y1="116.50" x2="926" y2="116.50" stroke="#e7ebef" stroke-width="0.5"/>
<text x="934" y="120.00" font-family="ui-monospace,Consolas,monospace" font-size="10" fill="#656d76">117.7</text>
<line x1="22" y1="78.00" x2="926" y2="78.00" stroke="#e7ebef" stroke-width="0.5"/>
<text x="934" y="81.50" font-family="ui-monospace,Consolas,monospace" font-size="10" fill="#656d76">123.5</text>
<line x1="29.53" y1="187.54" x2="29.53" y2="213.82" stroke="#1a7f37" stroke-width="1"/>
<rect x="25.03" y="189.86" width="9.00" height="21.50" fill="#1a7f3744" stroke="#1a7f37" stroke-width="1"/>
<rect x="25.03" y="301.82" width="9.00" height="10.18" fill="#1a7f37" opacity="0.35"/>
<line x1="44.60" y1="203.62" x2="44.60" y2="223.75" stroke="#1a7f37" stroke-width="1"/>
<rect x="40.10" y="211.36" width="9.00" height="11.19" fill="#1a7f3744" stroke="#1a7f37" stroke-width="1"/>
<rect x="40.10" y="305.07" width="9.00" height="6.93" fill="#1a7f37" opacity="0.35"/>
<line x1="59.67" y1="180.74" x2="59.67" y2="222.55" stroke="#cf222e" stroke-width="1"/>
<rect x="55.17" y="180.74" width="9.00" height="41.81" fill="#cf222e44" stroke="#cf222e" stroke-width="1"/>
<rect x="55.17" y="257.22" width="9.00" height="54.78" fill="#cf222e" opacity="0.35"/>
<line x1="74.73" y1="159.01" x2="74.73" y2="188.39" stroke="#cf222e" stroke-width="1"/>
<rect x="70.23" y="172.44" width="9.00" height="8.30" fill="#cf222e44" stroke="#cf222e" stroke-width="1"/>
<rect x="70.23" y="308.07" width="9.00" height="3.93" fill="#cf222e" opacity="0.35"/>
<line x1="89.80" y1="148.46" x2="89.80" y2="176.29" stroke="#cf222e" stroke-width="1"/>
<rect x="85.30" y="155.47" width="9.00" height="16.97" fill="#cf222e44" stroke="#cf222e" stroke-width="1"/>
<rect x="85.30" y="305.28" width="9.00" height="6.72" fill="#cf222e" opacity="0.35"/>
<line x1="104.87" y1="146.44" x2="104.87" y2="165.75" stroke="#cf222e" stroke-width="1"/>
<rect x="100.37" y="146.44" width="9.00" height="9.03" fill="#cf222e44" stroke="#cf222e" stroke-width="1"/>
<rect x="100.37" y="296.80" width="9.00" height="15.20" fill="#cf222e" opacity="0.35"/>
<line x1="119.93" y1="118.11" x2="119.93" y2="151.53" stroke="#cf222e" stroke-width="1"/>
<rect x="115.43" y="118.11" width="9.00" height="28.34" fill="#cf222e44" stroke="#cf222e" stroke-width="1"/>
<rect x="115.43" y="289.63" width="9.00" height="22.37" fill="#cf222e" opacity="0.35"/>
<line x1="135.00" y1="96.91" x2="135.00" y2="129.47" stroke="#1a7f37" stroke-width="1"/>
<rect x="130.50" y="118.11" width="9.00" height="9.18" fill="#1a7f3744" stroke="#1a7f37" stroke-width="1"/>
<rect x="130.50" y="308.81" width="9.00" height="3.19" fill="#1a7f37" opacity="0.35"/>
<line x1="150.07" y1="124.17" x2="150.07" y2="160.09" stroke="#1a7f37" stroke-width="1"/>
<rect x="145.57" y="127.29" width="9.00" height="32.24" fill="#1a7f3744" stroke="#1a7f37" stroke-width="1"/>
<rect x="145.57" y="298.56" width="9.00" height="13.44" fill="#1a7f37" opacity="0.35"/>
<line x1="165.13" y1="139.61" x2="165.13" y2="166.17" stroke="#cf222e" stroke-width="1"/>
<rect x="160.63" y="140.30" width="9.00" height="19.22" fill="#cf222e44" stroke="#cf222e" stroke-width="1"/>
<rect x="160.63" y="305.48" width="9.00" height="6.52" fill="#cf222e" opacity="0.35"/>
<line x1="180.20" y1="133.66" x2="180.20" y2="166.05" stroke="#1a7f37" stroke-width="1"/>
<rect x="175.70" y="140.30" width="9.00" height="16.02" fill="#1a7f3744" stroke="#1a7f37" stroke-width="1"/>
<rect x="175.70" y="303.20" width="9.00" height="8.80" fill="#1a7f37" opacity="0.35"/>
<line x1="195.27" y1="148.53" x2="195.27" y2="173.46" stroke="#cf222e" stroke-width="1"/>
<rect x="190.77" y="155.63" width="9.00" height="1.00" fill="#cf222e44" stroke="#cf222e" stroke-width="1"/>
<rect x="190.77" y="309.24" width="9.00" height="2.76" fill="#cf222e" opacity="0.35"/>
<line x1="210.33" y1="152.41" x2="210.33" y2="177.53" stroke="#1a7f37" stroke-width="1"/>
<rect x="205.83" y="155.63" width="9.00" height="18.76" fill="#1a7f3744" stroke="#1a7f37" stroke-width="1"/>
<rect x="205.83" y="287.58" width="9.00" height="24.42" fill="#1a7f37" opacity="0.35"/>
<line x1="225.40" y1="174.39" x2="225.40" y2="198.61" stroke="#1a7f37" stroke-width="1"/>
<rect x="220.90" y="174.39" width="9.00" height="12.67" fill="#1a7f3744" stroke="#1a7f37" stroke-width="1"/>
<rect x="220.90" y="307.04" width="9.00" height="4.96" fill="#1a7f37" opacity="0.35"/>
<line x1="240.47" y1="184.33" x2="240.47" y2="199.48" stroke="#cf222e" stroke-width="1"/>
<rect x="235.97" y="186.16" width="9.00" height="1.00" fill="#cf222e44" stroke="#cf222e" stroke-width="1"/>
<rect x="235.97" y="308.69" width="9.00" height="3.31" fill="#cf222e" opacity="0.35"/>
<line x1="255.53" y1="173.33" x2="255.53" y2="189.68" stroke="#cf222e" stroke-width="1"/>
<rect x="251.03" y="180.38" width="9.00" height="5.78" fill="#cf222e44" stroke="#cf222e" stroke-width="1"/>
<rect x="251.03" y="306.66" width="9.00" height="5.34" fill="#cf222e" opacity="0.35"/>
<line x1="270.60" y1="180.06" x2="270.60" y2="190.68" stroke="#1a7f37" stroke-width="1"/>
<rect x="266.10" y="180.38" width="9.00" height="1.00" fill="#1a7f3744" stroke="#1a7f37" stroke-width="1"/>
<rect x="266.10" y="306.46" width="9.00" height="5.54" fill="#1a7f37" opacity="0.35"/>
<line x1="285.67" y1="166.23" x2="285.67" y2="183.37" stroke="#1a7f37" stroke-width="1"/>
<rect x="281.17" y="180.86" width="9.00" height="2.51" fill="#1a7f3744" stroke="#1a7f37" stroke-width="1"/>
<rect x="281.17" y="308.55" width="9.00" height="3.45" fill="#1a7f37" opacity="0.35"/>
<line x1="300.73" y1="176.73" x2="300.73" y2="189.30" stroke="#1a7f37" stroke-width="1"/>
<rect x="296.23" y="183.37" width="9.00" height="5.93" fill="#1a7f3744" stroke="#1a7f37" stroke-width="1"/>
<rect x="296.23" y="308.20" width="9.00" height="3.80" fill="#1a7f37" opacity="0.35"/>
<line x1="315.80" y1="187.72" x2="315.80" y2="196.60" stroke="#1a7f37" stroke-width="1"/>
<rect x="311.30" y="189.30" width="9.00" height="5.04" fill="#1a7f3744" stroke="#1a7f37" stroke-width="1"/>
<rect x="311.30" y="307.55" width="9.00" height="4.45" fill="#1a7f37" opacity="0.35"/>
<line x1="330.87" y1="188.18" x2="330.87" y2="197.18" stroke="#cf222e" stroke-width="1"/>
<rect x="326.37" y="189.42" width="9.00" height="4.92" fill="#cf222e44" stroke="#cf222e" stroke-width="1"/>
<rect x="326.37" y="309.12" width="9.00" height="2.88" fill="#cf222e" opacity="0.35"/>
<line x1="345.93" y1="184.33" x2="345.93" y2="198.97" stroke="#1a7f37" stroke-width="1"/>
<rect x="341.43" y="189.42" width="9.00" height="5.51" fill="#1a7f3744" stroke="#1a7f37" stroke-width="1"/>
<rect x="341.43" y="308.24" width="9.00" height="3.76" fill="#1a7f37" opacity="0.35"/>
<line x1="361.00" y1="186.73" x2="361.00" y2="202.25" stroke="#cf222e" stroke-width="1"/>
<rect x="356.50" y="186.73" width="9.00" height="8.20" fill="#cf222e44" stroke="#cf222e" stroke-width="1"/>
<rect x="356.50" y="307.68" width="9.00" height="4.32" fill="#cf222e" opacity="0.35"/>
<line x1="376.07" y1="177.26" x2="376.07" y2="194.91" stroke="#1a7f37" stroke-width="1"/>
<rect x="371.57" y="186.73" width="9.00" height="1.00" fill="#1a7f3744" stroke="#1a7f37" stroke-width="1"/>
<rect x="371.57" y="307.13" width="9.00" height="4.87" fill="#1a7f37" opacity="0.35"/>
<line x1="391.13" y1="179.13" x2="391.13" y2="194.16" stroke="#1a7f37" stroke-width="1"/>
<rect x="386.63" y="186.78" width="9.00" height="7.37" fill="#1a7f3744" stroke="#1a7f37" stroke-width="1"/>
<rect x="386.63" y="303.53" width="9.00" height="8.47" fill="#1a7f37" opacity="0.35"/>
<line x1="406.20" y1="181.42" x2="406.20" y2="198.64" stroke="#cf222e" stroke-width="1"/>
<rect x="401.70" y="181.42" width="9.00" height="12.73" fill="#cf222e44" stroke="#cf222e" stroke-width="1"/>
<rect x="401.70" y="308.47" width="9.00" height="3.53" fill="#cf222e" opacity="0.35"/>
<line x1="421.27" y1="167.54" x2="421.27" y2="182.76" stroke="#1a7f37" stroke-width="1"/>
<rect x="416.77" y="181.42" width="9.00" height="1.34" fill="#1a7f3744" stroke="#1a7f37" stroke-width="1"/>
<rect x="416.77" y="304.24" width="9.00" height="7.76" fill="#1a7f37" opacity="0.35"/>
<line x1="436.33" y1="169.73" x2="436.33" y2="182.76" stroke="#cf222e" stroke-width="1"/>
<rect x="431.83" y="172.85" width="9.00" height="9.91" fill="#cf222e44" stroke="#cf222e" stroke-width="1"/>
<rect x="431.83" y="302.29" width="9.00" height="9.71" fill="#cf222e" opacity="0.35"/>
<line x1="451.40" y1="172.17" x2="451.40" y2="185.10" stroke="#1a7f37" stroke-width="1"/>
<rect x="446.90" y="172.85" width="9.00" height="7.71" fill="#1a7f3744" stroke="#1a7f37" stroke-width="1"/>
<rect x="446.90" y="304.88" width="9.00" height="7.12" fill="#1a7f37" opacity="0.35"/>
<line x1="466.47" y1="179.07" x2="466.47" y2="189.40" stroke="#1a7f37" stroke-width="1"/>
<rect x="461.97" y="180.56" width="9.00" height="4.82" fill="#1a7f3744" stroke="#1a7f37" stroke-width="1"/>
<rect x="461.97" y="308.55" width="9.00" height="3.45" fill="#1a7f37" opacity="0.35"/>
<line x1="481.53" y1="184.34" x2="481.53" y2="192.57" stroke="#1a7f37" stroke-width="1"/>
<rect x="477.03" y="185.38" width="9.00" height="5.62" fill="#1a7f3744" stroke="#1a7f37" stroke-width="1"/>
<rect x="477.03" y="309.01" width="9.00" height="2.99" fill="#1a7f37" opacity="0.35"/>
<line x1="496.60" y1="189.20" x2="496.60" y2="196.65" stroke="#1a7f37" stroke-width="1"/>
<rect x="492.10" y="191.00" width="9.00" height="2.50" fill="#1a7f3744" stroke="#1a7f37" stroke-width="1"/>
<rect x="492.10" y="308.47" width="9.00" height="3.53" fill="#1a7f37" opacity="0.35"/>
<line x1="511.67" y1="190.23" x2="511.67" y2="200.23" stroke="#1a7f37" stroke-width="1"/>
<rect x="507.17" y="193.51" width="9.00" height="3.77" fill="#1a7f3744" stroke="#1a7f37" stroke-width="1"/>
<rect x="507.17" y="309.54" width="9.00" height="2.46" fill="#1a7f37" opacity="0.35"/>
<line x1="526.73" y1="197.28" x2="526.73" y2="216.23" stroke="#1a7f37" stroke-width="1"/>
<rect x="522.23" y="197.28" width="9.00" height="13.53" fill="#1a7f3744" stroke="#1a7f37" stroke-width="1"/>
<rect x="522.23" y="303.78" width="9.00" height="8.22" fill="#1a7f37" opacity="0.35"/>
<line x1="541.80" y1="206.72" x2="541.80" y2="213.93" stroke="#1a7f37" stroke-width="1"/>
<rect x="537.30" y="210.80" width="9.00" height="2.15" fill="#1a7f3744" stroke="#1a7f37" stroke-width="1"/>
<rect x="537.30" y="306.99" width="9.00" height="5.01" fill="#1a7f37" opacity="0.35"/>
<line x1="556.87" y1="208.64" x2="556.87" y2="220.19" stroke="#1a7f37" stroke-width="1"/>
<rect x="552.37" y="212.96" width="9.00" height="2.48" fill="#1a7f3744" stroke="#1a7f37" stroke-width="1"/>
<rect x="552.37" y="308.77" width="9.00" height="3.23" fill="#1a7f37" opacity="0.35"/>
<line x1="571.93" y1="211.67" x2="571.93" y2="223.48" stroke="#1a7f37" stroke-width="1"/>
<rect x="567.43" y="215.44" width="9.00" height="2.09" fill="#1a7f3744" stroke="#1a7f37" stroke-width="1"/>
<rect x="567.43" y="308.02" width="9.00" height="3.98" fill="#1a7f37" opacity="0.35"/>
<line x1="587.00" y1="211.07" x2="587.00" y2="220.69" stroke="#cf222e" stroke-width="1"/>
<rect x="582.50" y="212.29" width="9.00" height="5.23" fill="#cf222e44" stroke="#cf222e" stroke-width="1"/>
<rect x="582.50" y="308.10" width="9.00" height="3.90" fill="#cf222e" opacity="0.35"/>
<line x1="602.07" y1="212.29" x2="602.07" y2="222.40" stroke="#1a7f37" stroke-width="1"/>
<rect x="597.57" y="212.29" width="9.00" height="4.15" fill="#1a7f3744" stroke="#1a7f37" stroke-width="1"/>
<rect x="597.57" y="301.90" width="9.00" height="10.10" fill="#1a7f37" opacity="0.35"/>
<line x1="617.13" y1="212.25" x2="617.13" y2="222.12" stroke="#cf222e" stroke-width="1"/>
<rect x="612.63" y="212.25" width="9.00" height="4.20" fill="#cf222e44" stroke="#cf222e" stroke-width="1"/>
<rect x="612.63" y="307.12" width="9.00" height="4.88" fill="#cf222e" opacity="0.35"/>
<line x1="632.20" y1="196.01" x2="632.20" y2="212.25" stroke="#cf222e" stroke-width="1"/>
<rect x="627.70" y="205.02" width="9.00" height="7.23" fill="#cf222e44" stroke="#cf222e" stroke-width="1"/>
<rect x="627.70" y="305.74" width="9.00" height="6.26" fill="#cf222e" opacity="0.35"/>
<line x1="647.27" y1="198.14" x2="647.27" y2="205.66" stroke="#cf222e" stroke-width="1"/>
<rect x="642.77" y="203.08" width="9.00" height="1.94" fill="#cf222e44" stroke="#cf222e" stroke-width="1"/>
<rect x="642.77" y="306.06" width="9.00" height="5.94" fill="#cf222e" opacity="0.35"/>
<line x1="662.33" y1="198.74" x2="662.33" y2="212.58" stroke="#1a7f37" stroke-width="1"/>
<rect x="657.83" y="203.08" width="9.00" height="8.19" fill="#1a7f3744" stroke="#1a7f37" stroke-width="1"/>
<rect x="657.83" y="306.07" width="9.00" height="5.93" fill="#1a7f37" opacity="0.35"/>
<line x1="677.40" y1="203.65" x2="677.40" y2="218.15" stroke="#cf222e" stroke-width="1"/>
<rect x="672.90" y="207.08" width="9.00" height="4.19" fill="#cf222e44" stroke="#cf222e" stroke-width="1"/>
<rect x="672.90" y="308.98" width="9.00" height="3.02" fill="#cf222e" opacity="0.35"/>
<line x1="692.47" y1="201.75" x2="692.47" y2="207.84" stroke="#cf222e" stroke-width="1"/>
<rect x="687.97" y="207.01" width="9.00" height="1.00" fill="#cf222e44" stroke="#cf222e" stroke-width="1"/>
<rect x="687.97" y="306.67" width="9.00" height="5.33" fill="#cf222e" opacity="0.35"/>
<line x1="707.53" y1="194.80" x2="707.53" y2="207.01" stroke="#cf222e" stroke-width="1"/>
<rect x="703.03" y="194.80" width="9.00" height="12.21" fill="#cf222e44" stroke="#cf222e" stroke-width="1"/>
<rect x="703.03" y="302.88" width="9.00" height="9.12" fill="#cf222e" opacity="0.35"/>
<line x1="722.60" y1="177.06" x2="722.60" y2="194.80" stroke="#cf222e" stroke-width="1"/>
<rect x="718.10" y="180.00" width="9.00" height="14.79" fill="#cf222e44" stroke="#cf222e" stroke-width="1"/>
<rect x="718.10" y="302.55" width="9.00" height="9.45" fill="#cf222e" opacity="0.35"/>
<line x1="737.67" y1="151.77" x2="737.67" y2="180.00" stroke="#cf222e" stroke-width="1"/>
<rect x="733.17" y="151.77" width="9.00" height="28.23" fill="#cf222e44" stroke="#cf222e" stroke-width="1"/>
<rect x="733.17" y="286.10" width="9.00" height="25.90" fill="#cf222e" opacity="0.35"/>
<line x1="752.73" y1="149.54" x2="752.73" y2="175.60" stroke="#1a7f37" stroke-width="1"/>
<rect x="748.23" y="151.77" width="9.00" height="23.83" fill="#1a7f3744" stroke="#1a7f37" stroke-width="1"/>
<rect x="748.23" y="298.98" width="9.00" height="13.02" fill="#1a7f37" opacity="0.35"/>
<line x1="767.80" y1="132.92" x2="767.80" y2="175.60" stroke="#cf222e" stroke-width="1"/>
<rect x="763.30" y="132.92" width="9.00" height="42.68" fill="#cf222e44" stroke="#cf222e" stroke-width="1"/>
<rect x="763.30" y="281.12" width="9.00" height="30.88" fill="#cf222e" opacity="0.35"/>
<line x1="782.87" y1="123.13" x2="782.87" y2="136.53" stroke="#cf222e" stroke-width="1"/>
<rect x="778.37" y="129.92" width="9.00" height="3.01" fill="#cf222e44" stroke="#cf222e" stroke-width="1"/>
<rect x="778.37" y="305.57" width="9.00" height="6.43" fill="#cf222e" opacity="0.35"/>
<line x1="797.93" y1="118.75" x2="797.93" y2="147.55" stroke="#1a7f37" stroke-width="1"/>
<rect x="793.43" y="129.92" width="9.00" height="11.50" fill="#1a7f3744" stroke="#1a7f37" stroke-width="1"/>
<rect x="793.43" y="304.78" width="9.00" height="7.22" fill="#1a7f37" opacity="0.35"/>
<line x1="813.00" y1="133.12" x2="813.00" y2="156.90" stroke="#1a7f37" stroke-width="1"/>
<rect x="808.50" y="141.42" width="9.00" height="12.22" fill="#1a7f3744" stroke="#1a7f37" stroke-width="1"/>
<rect x="808.50" y="305.53" width="9.00" height="6.47" fill="#1a7f37" opacity="0.35"/>
<line x1="828.07" y1="107.55" x2="828.07" y2="156.26" stroke="#cf222e" stroke-width="1"/>
<rect x="823.57" y="112.11" width="9.00" height="41.53" fill="#cf222e44" stroke="#cf222e" stroke-width="1"/>
<rect x="823.57" y="250.00" width="9.00" height="62.00" fill="#cf222e" opacity="0.35"/>
<line x1="843.13" y1="102.01" x2="843.13" y2="121.78" stroke="#cf222e" stroke-width="1"/>
<rect x="838.63" y="104.29" width="9.00" height="7.82" fill="#cf222e44" stroke="#cf222e" stroke-width="1"/>
<rect x="838.63" y="308.54" width="9.00" height="3.46" fill="#cf222e" opacity="0.35"/>
<line x1="858.20" y1="86.25" x2="858.20" y2="106.42" stroke="#1a7f37" stroke-width="1"/>
<rect x="853.70" y="104.29" width="9.00" height="1.97" fill="#1a7f3744" stroke="#1a7f37" stroke-width="1"/>
<rect x="853.70" y="308.42" width="9.00" height="3.58" fill="#1a7f37" opacity="0.35"/>
<line x1="873.27" y1="98.86" x2="873.27" y2="114.27" stroke="#1a7f37" stroke-width="1"/>
<rect x="868.77" y="106.26" width="9.00" height="5.13" fill="#1a7f3744" stroke="#1a7f37" stroke-width="1"/>
<rect x="868.77" y="307.46" width="9.00" height="4.54" fill="#1a7f37" opacity="0.35"/>
<line x1="888.33" y1="87.09" x2="888.33" y2="121.22" stroke="#cf222e" stroke-width="1"/>
<rect x="883.83" y="96.41" width="9.00" height="14.98" fill="#cf222e44" stroke="#cf222e" stroke-width="1"/>
<rect x="883.83" y="305.75" width="9.00" height="6.25" fill="#cf222e" opacity="0.35"/>
<line x1="903.40" y1="96.41" x2="903.40" y2="115.33" stroke="#1a7f37" stroke-width="1"/>
<rect x="898.90" y="96.41" width="9.00" height="12.59" fill="#1a7f3744" stroke="#1a7f37" stroke-width="1"/>
<rect x="898.90" y="305.58" width="9.00" height="6.42" fill="#1a7f37" opacity="0.35"/>
<line x1="918.47" y1="109.00" x2="918.47" y2="132.23" stroke="#1a7f37" stroke-width="1"/>
<rect x="913.97" y="109.00" width="9.00" height="21.40" fill="#1a7f3744" stroke="#1a7f37" stroke-width="1"/>
<rect x="913.97" y="282.62" width="9.00" height="29.38" fill="#1a7f37" opacity="0.35"/>
<polyline points="315.80,171.10 330.87,170.01 345.93,168.62 361.00,168.92 376.07,169.64 391.13,171.57 406.20,173.32 421.27,176.56 436.33,178.83 451.40,179.89 466.47,182.14 481.53,183.87 496.60,185.77 511.67,186.91 526.73,188.10 541.80,189.44 556.87,191.19 571.93,193.03 587.00,194.47 602.07,195.83 617.13,196.72 632.20,197.50 647.27,197.91 662.33,199.14 677.40,200.15 692.47,200.80 707.53,201.47 722.60,201.33 737.67,200.27 752.73,200.03 767.80,197.40 782.87,194.35 797.93,191.74 813.00,189.56 828.07,184.63 843.13,179.19 858.20,173.73 873.27,168.43 888.33,162.63 903.40,157.26 918.47,153.17" fill="none" stroke="#9a6700" stroke-width="1.5" stroke-linejoin="round"/>
<text x="29.53" y="330" text-anchor="start" font-family="ui-monospace,Consolas,monospace" font-size="10" fill="#656d76">2026-06-30</text>
<text x="466.47" y="330" text-anchor="middle" font-family="ui-monospace,Consolas,monospace" font-size="10" fill="#656d76">2026-08-10</text>
<text x="918.47" y="330" text-anchor="end" font-family="ui-monospace,Consolas,monospace" font-size="10" fill="#656d76">2026-09-21</text>
</svg>